<svg width="48" height="48" viewBox="0 0 48 48" fill="none" xmlns="http://www.w3.org/2000/svg">
  <circle cx="24" cy="24" r="20" stroke="currentColor" stroke-width="2"/>
  <path d="M16 16C16 13.7909 17.7909 12 20 12C22.2091 12 24 13.7909 24 16C24 18.2091 22.2091 20 20 20C17.7909 20 16 18.2091 16 16Z" stroke="currentColor" stroke-width="2"/>
  <path d="M28 32C28 29.7909 29.7909 28 32 28C34.2091 28 36 29.7909 36 32C36 34.2091 34.2091 36 32 36C29.7909 36 28 34.2091 28 32Z" stroke="currentColor" stroke-width="2"/>
  <path d="M20 16L28 32" stroke="currentColor" stroke-width="2" stroke-linecap="round"/>
  <path d="M24 20L32 28" stroke="currentColor" stroke-width="2" stroke-linecap="round"/>
  <path d="M16 24L24 32" stroke="currentColor" stroke-width="2" stroke-linecap="round"/>
  <path d="M20 28L28 16" stroke="currentColor" stroke-width="2" stroke-linecap="round"/>
</svg>
